# Blender v2.78 (sub 0) OBJ File: ''
# www.blender.org
mtllib cube_new.mtl
o cube_new
v -1.000000 -1.000000 -1.000000
v -1.000000 1.000000 -1.000000
v 1.000000 1.000000 -1.000000
v 1.000000 -1.000000 -1.000000
v -1.000000 -1.000000 1.000000
v 1.000000 1.000000 1.000000
v -1.000000 1.000000 1.000000
v 1.000000 -1.000000 1.000000
vt 1.0000 0.0000
vt 1.0000 0.3333
vt 0.6667 0.3333
vt 0.6667 0.0000
vt 0.0000 1.0000
vt 0.3333 0.6667
vt 0.3333 1.0000
vt 0.0000 0.6667
vt 0.3333 0.6667
vt 0.3333 0.3333
vt 0.6667 0.3333
vt 0.6667 0.6667
vt 0.3333 0.0000
vt 0.3333 0.3333
vt 0.0000 0.3333
vt 0.0000 0.0000
vt 0.3333 0.6667
vt 0.0000 0.6667
vt 0.6667 0.0000
vt 0.6667 0.3333
vt 0.3333 0.3333
vt 0.3333 0.0000
vn 0.0000 0.0000 -1.0000
vn 0.0000 -0.0000 1.0000
vn -1.0000 0.0000 0.0000
vn 1.0000 0.0000 0.0000
vn 0.0000 1.0000 0.0000
vn 0.0000 -1.0000 -0.0000
usemtl None
s off
f 1/1/1 2/2/1 3/3/1
f 1/1/1 3/3/1 4/4/1
f 5/5/2 6/6/2 7/7/2
f 5/5/2 8/8/2 6/6/2
f 5/9/3 7/10/3 2/11/3
f 5/9/3 2/11/3 1/12/3
f 4/13/4 3/14/4 6/15/4
f 4/13/4 6/15/4 8/16/4
f 2/17/5 7/18/5 6/15/5
f 2/17/5 6/15/5 3/14/5
f 5/19/6 1/20/6 4/21/6
f 5/19/6 4/21/6 8/22/6
