# Blender v2.78 (sub 0) OBJ File: ''
# www.blender.org
mtllib sphere_low_res.mtl
o Sphere
v 0.000000 0.951057 -0.309017
v 0.000000 0.809017 -0.587785
v 0.000000 0.587785 -0.809017
v 0.000000 -0.309017 -0.951056
v 0.000000 -0.587785 -0.809017
v 0.181636 0.951057 -0.250000
v 0.345492 0.809017 -0.475528
v 0.475528 0.587785 -0.654508
v 0.559017 0.309017 -0.769421
v 0.587785 -0.000000 -0.809017
v 0.559017 -0.309017 -0.769421
v 0.475528 -0.587785 -0.654508
v 0.345492 -0.809017 -0.475528
v 0.181636 -0.951057 -0.250000
v 0.293893 0.951057 -0.095491
v 0.559017 0.809017 -0.181635
v 0.769421 0.587785 -0.250000
v 0.904509 0.309017 -0.293892
v 0.951057 -0.000000 -0.309017
v 0.904509 -0.309017 -0.293892
v 0.769421 -0.587785 -0.250000
v 0.559017 -0.809017 -0.181635
v 0.293893 -0.951057 -0.095491
v 0.293893 0.951057 0.095492
v 0.559017 0.809017 0.181636
v 0.769421 0.587785 0.250000
v 0.904509 0.309017 0.293893
v 0.951057 -0.000000 0.309017
v 0.904509 -0.309017 0.293893
v 0.769421 -0.587785 0.250000
v 0.559017 -0.809017 0.181636
v 0.293893 -0.951057 0.095492
v 0.181636 0.951057 0.250001
v 0.345492 0.809017 0.475529
v 0.475528 0.587785 0.654509
v 0.559017 0.309017 0.769421
v 0.587785 -0.000000 0.809017
v 0.559017 -0.309017 0.769421
v 0.475528 -0.587785 0.654509
v 0.345492 -0.809017 0.475529
v 0.181636 -0.951057 0.250000
v 0.000000 0.951057 0.309018
v 0.000000 0.809017 0.587786
v -0.000000 0.587785 0.809018
v 0.000000 0.309017 0.951057
v 0.000000 -0.000000 1.000001
v -0.000000 -0.309017 0.951057
v -0.000000 -0.587785 0.809018
v 0.000000 -0.809017 0.587786
v 0.000000 -0.951057 0.309017
v 0.000000 -1.000000 0.000000
v -0.000000 1.000000 0.000001
v -0.181636 0.951057 0.250001
v -0.345492 0.809017 0.475529
v -0.475529 0.587785 0.654509
v -0.559017 0.309017 0.769422
v -0.587785 -0.000000 0.809018
v -0.559017 -0.309017 0.769421
v -0.475529 -0.587785 0.654509
v -0.345492 -0.809017 0.475529
v -0.181636 -0.951057 0.250000
v -0.293893 0.951057 0.095492
v -0.559017 0.809017 0.181636
v -0.769421 0.587785 0.250000
v -0.904509 0.309017 0.293893
v -0.951057 -0.000000 0.309018
v -0.904509 -0.309017 0.293893
v -0.769421 -0.587785 0.250000
v -0.559017 -0.809017 0.181636
v -0.293893 -0.951057 0.095492
v -0.293893 0.951057 -0.095491
v -0.559017 0.809017 -0.181635
v -0.769421 0.587785 -0.250000
v -0.904509 0.309017 -0.293892
v -0.951057 -0.000000 -0.309017
v -0.904509 -0.309017 -0.293892
v -0.769421 -0.587785 -0.250000
v -0.559017 -0.809017 -0.181635
v -0.293893 -0.951057 -0.095491
v -0.181636 0.951057 -0.250000
v -0.345492 0.809017 -0.475528
v -0.475529 0.587785 -0.654509
v -0.559017 0.309017 -0.769421
v -0.587786 -0.000000 -0.809017
v -0.559017 -0.309017 -0.769421
v -0.475529 -0.587785 -0.654509
v -0.345492 -0.809017 -0.475528
v -0.181636 -0.951057 -0.250000
v -0.000000 0.309017 -0.951057
v -0.000000 -0.000000 -1.000000
v -0.000000 -0.809017 -0.587785
v -0.000000 -0.951057 -0.309017
vt 0.3709 0.6647
vt 0.3206 0.8365
vt 0.3152 0.6821
vt 0.5708 0.6646
vt 0.5115 0.8370
vt 0.5052 0.6555
vt 0.0672 0.3274
vt 0.1011 0.2501
vt 0.1048 0.3457
vt 0.5709 0.4525
vt 0.4559 0.4319
vt 0.5273 0.3972
vt 0.4430 0.8464
vt 0.4364 0.6555
vt 0.1155 0.4319
vt 0.0441 0.3972
vt 0.4827 0.3274
vt 0.4451 0.3457
vt 0.3772 0.8462
vt 0.6265 0.6820
vt 0.5761 0.8190
vt 0.4414 0.2501
vt 0.5280 0.9831
vt 0.1423 0.3274
vt 0.6756 0.6023
vt 0.6763 0.7564
vt 0.6348 0.6802
vt 0.4603 1.0000
vt 0.1869 0.3972
vt 0.4076 0.3274
vt 0.7270 0.5404
vt 0.8546 0.6299
vt 0.7942 0.6636
vt 0.1323 0.5003
vt 0.2306 0.4525
vt 0.7327 0.7072
vt 0.3844 0.2797
vt 0.7681 0.8536
vt 0.3404 0.3410
vt 0.2690 0.4881
vt 0.1655 0.2797
vt 0.7020 0.8628
vt 0.9081 0.6093
vt 0.8983 0.8109
vt 0.2311 0.3063
vt 0.6304 0.8063
vt 0.6439 0.8623
vt 0.8357 0.8357
vt 0.2913 0.3274
vt 0.8983 0.9741
vt 0.8357 0.9910
vt 0.2311 0.1940
vt 0.2913 0.1728
vt 0.3844 0.2206
vt 0.7681 0.9857
vt 0.3404 0.1593
vt 0.1655 0.2206
vt 0.7020 0.9587
vt 0.9497 0.7815
vt 0.6439 0.9127
vt 0.1423 0.1728
vt 0.1869 0.1031
vt 0.3845 0.1031
vt 0.4076 0.1728
vt 0.1963 0.9924
vt 0.1212 0.8448
vt 0.1900 0.8448
vt 0.2306 0.0478
vt 0.2556 0.8357
vt 0.2609 0.9613
vt 0.2690 0.0122
vt 0.3113 0.8183
vt 0.3152 0.9096
vt 0.0620 0.9832
vt 0.1278 1.0000
vt 0.0557 0.8356
vt 0.1278 0.6539
vt 0.1155 0.0684
vt 0.4559 0.0684
vt 0.4451 0.1546
vt 0.1963 0.6633
vt 0.1323 0.0000
vt 0.2609 0.6813
vt 0.0000 0.8182
vt 0.0620 0.6541
vt 0.1048 0.1546
vt 0.3152 0.7061
vt 0.0672 0.1728
vt 0.4727 0.0000
vt 0.5273 0.1031
vt 0.7773 0.4506
vt 0.9049 0.3611
vt 0.8343 0.4907
vt 0.0441 0.1031
vt 0.4827 0.1728
vt 0.1451 0.5003
vt 0.2128 0.5172
vt 0.7259 0.3886
vt 0.7266 0.2346
vt 0.7831 0.2838
vt 0.2749 0.5570
vt 0.8445 0.3274
vt 0.6093 0.0122
vt 0.6317 0.1728
vt 0.5709 0.0478
vt 0.8860 0.1552
vt 0.0440 0.2206
vt 0.5714 0.1940
vt 0.9486 0.1801
vt 0.6807 0.1846
vt 0.7523 0.1282
vt 0.5059 0.2206
vt 0.9585 0.3816
vt 1.0000 0.2095
vt 0.8184 0.1374
vt 0.7523 0.0323
vt 0.8184 0.0053
vt 0.5059 0.2797
vt 0.6807 0.1593
vt 0.6317 0.3274
vt 0.8860 0.0000
vt 0.0440 0.2797
vt 0.5714 0.3063
vt 0.9486 0.0169
vt 0.6942 0.1287
vt 1.0000 0.0543
vt 0.3772 0.5171
vt 0.6304 0.5907
vt 0.5761 0.5390
vt 0.6093 0.4881
vt 0.5115 0.5079
vt 0.4430 0.5003
vt 0.0000 0.3063
vt 0.4727 0.5003
vt 0.6304 0.7942
vt 0.5901 0.9433
vt 0.3845 0.3972
vt 0.7839 0.5003
vt 0.9497 0.9367
vt 0.3404 0.1940
vt 0.0054 0.6638
vt 0.6851 0.3108
vt 0.6807 0.3410
vt 0.6942 0.0783
vn 0.2781 -0.4361 -0.8559
vn 0.2781 0.4361 -0.8559
vn 0.0508 0.9864 -0.1562
vn 0.2239 -0.6892 -0.6892
vn 0.3056 0.1490 -0.9404
vn 0.1459 0.8815 -0.4491
vn 0.1459 -0.8815 -0.4491
vn 0.3056 -0.1490 -0.9404
vn 0.2239 0.6892 -0.6892
vn 0.0508 -0.9864 -0.1562
vn 0.7280 0.4361 -0.5290
vn 0.1329 0.9864 -0.0966
vn 0.5862 -0.6892 -0.4259
vn 0.8000 0.1490 -0.5812
vn 0.3821 0.8815 -0.2776
vn 0.3821 -0.8815 -0.2776
vn 0.8000 -0.1490 -0.5812
vn 0.5862 0.6892 -0.4259
vn 0.1329 -0.9864 -0.0966
vn 0.7280 -0.4361 -0.5290
vn 0.1643 -0.9864 0.0000
vn 0.8999 -0.4361 0.0000
vn 0.8999 0.4361 0.0000
vn 0.1643 0.9864 0.0000
vn 0.7246 -0.6892 0.0000
vn 0.9888 0.1490 0.0000
vn 0.4722 0.8815 0.0000
vn 0.4722 -0.8815 0.0000
vn 0.9888 -0.1490 0.0000
vn 0.7246 0.6892 0.0000
vn 0.8000 -0.1490 0.5812
vn 0.5862 0.6892 0.4259
vn 0.1329 -0.9864 0.0966
vn 0.7280 -0.4361 0.5290
vn 0.7280 0.4361 0.5290
vn 0.1329 0.9864 0.0966
vn 0.5862 -0.6892 0.4259
vn 0.8000 0.1490 0.5812
vn 0.3821 0.8815 0.2776
vn 0.3821 -0.8815 0.2776
vn 0.1459 0.8815 0.4491
vn 0.1459 -0.8815 0.4491
vn 0.3056 -0.1490 0.9404
vn 0.2239 0.6892 0.6892
vn 0.0508 -0.9864 0.1562
vn 0.2781 -0.4361 0.8559
vn 0.2781 0.4361 0.8559
vn 0.0508 0.9864 0.1562
vn 0.2239 -0.6892 0.6892
vn 0.3056 0.1490 0.9404
vn -0.3056 0.1490 0.9404
vn -0.1459 0.8815 0.4491
vn -0.1459 -0.8815 0.4491
vn -0.3056 -0.1490 0.9404
vn -0.2239 0.6892 0.6892
vn -0.0508 -0.9864 0.1562
vn -0.2781 -0.4361 0.8559
vn -0.2781 0.4361 0.8559
vn -0.0508 0.9864 0.1562
vn -0.2239 -0.6892 0.6892
vn -0.1329 0.9864 0.0966
vn -0.5862 -0.6892 0.4259
vn -0.8000 0.1490 0.5812
vn -0.3821 0.8815 0.2776
vn -0.3821 -0.8815 0.2776
vn -0.8000 -0.1490 0.5812
vn -0.5862 0.6892 0.4259
vn -0.1329 -0.9864 0.0966
vn -0.7280 -0.4361 0.5290
vn -0.7280 0.4361 0.5290
vn -0.8999 -0.4361 0.0000
vn -0.8999 0.4361 0.0000
vn -0.1643 0.9864 0.0000
vn -0.7246 -0.6892 0.0000
vn -0.9888 0.1490 0.0000
vn -0.4722 0.8815 -0.0000
vn -0.4722 -0.8815 0.0000
vn -0.9888 -0.1490 0.0000
vn -0.7246 0.6892 0.0000
vn -0.1643 -0.9864 0.0000
vn -0.5862 0.6892 -0.4259
vn -0.1329 -0.9864 -0.0966
vn -0.7280 -0.4361 -0.5290
vn -0.7280 0.4361 -0.5290
vn -0.1329 0.9864 -0.0966
vn -0.5862 -0.6892 -0.4259
vn -0.8000 0.1490 -0.5812
vn -0.3821 0.8815 -0.2776
vn -0.3821 -0.8815 -0.2776
vn -0.8000 -0.1490 -0.5812
vn -0.3056 -0.1490 -0.9404
vn -0.2239 0.6892 -0.6892
vn -0.0508 -0.9864 -0.1562
vn -0.2781 -0.4361 -0.8559
vn -0.2781 0.4361 -0.8559
vn -0.0508 0.9864 -0.1562
vn -0.2239 -0.6892 -0.6892
vn -0.3056 0.1490 -0.9404
vn -0.1459 0.8815 -0.4491
vn -0.1459 -0.8815 -0.4491
usemtl None
s off
f 4/1/1 12/2/1 5/3/1
f 3/4/2 9/5/2 89/6/2
f 1/7/3 52/8/3 6/9/3
f 5/10/4 13/11/4 91/12/4
f 89/6/5 10/13/5 90/14/5
f 1/7/6 7/15/6 2/16/6
f 92/17/7 13/11/7 14/18/7
f 4/1/8 10/13/8 11/19/8
f 2/20/9 8/21/9 3/4/9
f 51/22/10 92/17/10 14/18/10
f 8/21/11 18/23/11 9/5/11
f 6/9/12 52/8/12 15/24/12
f 12/25/13 22/26/13 13/27/13
f 9/5/14 19/28/14 10/13/14
f 6/9/15 16/29/15 7/15/15
f 13/11/16 23/30/16 14/18/16
f 11/31/17 19/32/17 20/33/17
f 8/34/18 16/29/18 17/35/18
f 51/22/19 14/18/19 23/30/19
f 11/31/20 21/36/20 12/25/20
f 51/22/21 23/30/21 32/37/21
f 20/33/22 30/38/22 21/36/22
f 17/35/23 27/39/23 18/40/23
f 15/24/24 52/8/24 24/41/24
f 21/36/25 31/42/25 22/26/25
f 18/43/26 28/44/26 19/32/26
f 15/24/27 25/45/27 16/29/27
f 23/46/28 31/42/28 32/47/28
f 20/33/29 28/44/29 29/48/29
f 16/29/30 26/49/30 17/35/30
f 29/48/31 37/50/31 38/51/31
f 26/49/32 34/52/32 35/53/32
f 51/22/33 32/37/33 41/54/33
f 29/48/34 39/55/34 30/38/34
f 26/49/35 36/56/35 27/39/35
f 24/41/36 52/8/36 33/57/36
f 30/38/37 40/58/37 31/42/37
f 27/59/38 37/50/38 28/44/38
f 24/41/39 34/52/39 25/45/39
f 32/47/40 40/58/40 41/60/40
f 34/52/41 42/61/41 43/62/41
f 41/54/42 49/63/42 50/64/42
f 38/65/43 46/66/43 47/67/43
f 35/53/44 43/62/44 44/68/44
f 51/22/45 41/54/45 50/64/45
f 38/65/46 48/69/46 39/70/46
f 35/53/47 45/71/47 36/56/47
f 33/57/48 52/8/48 42/61/48
f 39/70/49 49/72/49 40/73/49
f 36/74/50 46/66/50 37/75/50
f 45/76/51 57/77/51 46/66/51
f 42/61/52 54/78/52 43/62/52
f 50/64/53 60/79/53 61/80/53
f 47/67/54 57/77/54 58/81/54
f 44/68/55 54/78/55 55/82/55
f 51/22/56 50/64/56 61/80/56
f 47/67/57 59/83/57 48/69/57
f 44/84/58 56/85/58 45/76/58
f 42/61/59 52/8/59 53/86/59
f 48/69/60 60/87/60 49/72/60
f 53/86/61 52/8/61 62/88/61
f 59/89/62 69/90/62 60/79/62
f 56/91/63 66/92/63 57/93/63
f 54/78/64 62/88/64 63/94/64
f 61/80/65 69/90/65 70/95/65
f 58/81/66 66/96/66 67/97/66
f 55/98/67 63/99/67 64/100/67
f 51/22/68 61/80/68 70/95/68
f 58/81/69 68/101/69 59/83/69
f 55/98/70 65/102/70 56/91/70
f 67/103/71 77/104/71 68/105/71
f 64/100/72 74/106/72 65/102/72
f 62/88/73 52/8/73 71/107/73
f 68/105/74 78/108/74 69/90/74
f 65/102/75 75/109/75 66/92/75
f 62/110/76 72/111/76 63/99/76
f 70/95/77 78/108/77 79/112/77
f 67/113/78 75/109/78 76/114/78
f 64/100/79 72/111/79 73/115/79
f 51/22/80 70/95/80 79/112/80
f 73/115/81 81/116/81 82/117/81
f 51/22/82 79/112/82 88/118/82
f 76/119/83 86/120/83 77/104/83
f 73/115/84 83/121/84 74/106/84
f 71/107/85 52/8/85 80/122/85
f 77/104/86 87/123/86 78/108/86
f 74/106/87 84/124/87 75/109/87
f 71/125/88 81/116/88 72/111/88
f 79/112/89 87/123/89 88/118/89
f 76/114/90 84/124/90 85/126/90
f 85/127/91 90/14/91 4/1/91
f 81/128/92 3/4/92 82/129/92
f 51/22/93 88/118/93 92/17/93
f 86/120/94 4/130/94 5/10/94
f 82/129/95 89/6/95 83/131/95
f 80/122/96 52/8/96 1/7/96
f 86/120/97 91/12/97 87/123/97
f 83/131/98 90/14/98 84/132/98
f 80/122/99 2/16/99 81/133/99
f 88/118/100 91/12/100 92/17/100
f 4/1/1 11/19/1 12/2/1
f 3/4/2 8/21/2 9/5/2
f 5/10/4 12/134/4 13/11/4
f 89/6/5 9/5/5 10/13/5
f 1/7/6 6/9/6 7/15/6
f 92/17/7 91/12/7 13/11/7
f 4/1/8 90/14/8 10/13/8
f 2/20/9 7/135/9 8/21/9
f 8/21/11 17/136/11 18/23/11
f 12/25/13 21/36/13 22/26/13
f 9/5/14 18/23/14 19/28/14
f 6/9/15 15/24/15 16/29/15
f 13/11/16 22/137/16 23/30/16
f 11/31/17 10/138/17 19/32/17
f 8/34/18 7/15/18 16/29/18
f 11/31/20 20/33/20 21/36/20
f 20/33/22 29/48/22 30/38/22
f 17/35/23 26/49/23 27/39/23
f 21/36/25 30/38/25 31/42/25
f 18/43/26 27/59/26 28/44/26
f 15/24/27 24/41/27 25/45/27
f 23/46/28 22/26/28 31/42/28
f 20/33/29 19/32/29 28/44/29
f 16/29/30 25/45/30 26/49/30
f 29/48/31 28/44/31 37/50/31
f 26/49/32 25/45/32 34/52/32
f 29/48/34 38/51/34 39/55/34
f 26/49/35 35/53/35 36/56/35
f 30/38/37 39/55/37 40/58/37
f 27/59/38 36/139/38 37/50/38
f 24/41/39 33/57/39 34/52/39
f 32/47/40 31/42/40 40/58/40
f 34/52/41 33/57/41 42/61/41
f 41/54/42 40/140/42 49/63/42
f 38/65/43 37/75/43 46/66/43
f 35/53/44 34/52/44 43/62/44
f 38/65/46 47/67/46 48/69/46
f 35/53/47 44/68/47 45/71/47
f 39/70/49 48/69/49 49/72/49
f 36/74/50 45/76/50 46/66/50
f 45/76/51 56/85/51 57/77/51
f 42/61/52 53/86/52 54/78/52
f 50/64/53 49/63/53 60/79/53
f 47/67/54 46/66/54 57/77/54
f 44/68/55 43/62/55 54/78/55
f 47/67/57 58/81/57 59/83/57
f 44/84/58 55/141/58 56/85/58
f 48/69/60 59/83/60 60/87/60
f 59/89/62 68/105/62 69/90/62
f 56/91/63 65/102/63 66/92/63
f 54/78/64 53/86/64 62/88/64
f 61/80/65 60/79/65 69/90/65
f 58/81/66 57/77/66 66/96/66
f 55/98/67 54/142/67 63/99/67
f 58/81/69 67/97/69 68/101/69
f 55/98/70 64/100/70 65/102/70
f 67/103/71 76/119/71 77/104/71
f 64/100/72 73/115/72 74/106/72
f 68/105/74 77/104/74 78/108/74
f 65/102/75 74/106/75 75/109/75
f 62/110/76 71/125/76 72/111/76
f 70/95/77 69/90/77 78/108/77
f 67/113/78 66/92/78 75/109/78
f 64/100/79 63/99/79 72/111/79
f 73/115/81 72/111/81 81/116/81
f 76/119/83 85/143/83 86/120/83
f 73/115/84 82/117/84 83/121/84
f 77/104/86 86/120/86 87/123/86
f 74/106/87 83/121/87 84/124/87
f 71/125/88 80/144/88 81/116/88
f 79/112/89 78/108/89 87/123/89
f 76/114/90 75/109/90 84/124/90
f 85/127/91 84/132/91 90/14/91
f 81/128/92 2/20/92 3/4/92
f 86/120/94 85/143/94 4/130/94
f 82/129/95 3/4/95 89/6/95
f 86/120/97 5/10/97 91/12/97
f 83/131/98 89/6/98 90/14/98
f 80/122/99 1/7/99 2/16/99
f 88/118/100 87/123/100 91/12/100
