# Blender v2.78 (sub 0) OBJ File: ''
# www.blender.org
mtllib sphere.mtl
o sphere1_default
v 0.382683 0.923880 0.000000
v 0.653281 0.707107 0.270598
v 0.707107 0.707107 0.000000
v 0.653281 0.707107 -0.270598
v 0.353553 0.923880 -0.146446
v 0.000000 1.000000 0.000000
v 0.353553 0.923880 0.146447
v 0.270598 0.923879 0.270598
v 0.270598 0.707107 0.653282
v 0.500000 0.707107 0.500000
v 0.146447 0.923879 0.353554
v 0.000000 0.923879 0.382684
v -0.270598 0.707107 0.653282
v 0.000000 0.707107 0.707107
v -0.146447 0.923879 0.353554
v -0.270598 0.923879 0.270598
v -0.653281 0.707107 0.270598
v -0.500000 0.707107 0.500000
v -0.353553 0.923880 0.146447
v -0.382683 0.923880 0.000000
v -0.653281 0.707107 -0.270598
v -0.707107 0.707107 0.000000
v -0.353553 0.923880 -0.146446
v -0.270598 0.923880 -0.270598
v -0.270598 0.707107 -0.653281
v -0.500000 0.707107 -0.500000
v -0.146447 0.923880 -0.353553
v -0.000000 0.923880 -0.382683
v 0.270598 0.707107 -0.653281
v -0.000000 0.707107 -0.707107
v 0.146447 0.923880 -0.353553
v 0.270598 0.923880 -0.270598
v 0.500000 0.707107 -0.500000
v 0.923880 0.382683 0.000000
v 0.653281 0.382683 0.653282
v 0.853553 0.382683 0.353553
v 0.000000 0.382683 0.923880
v 0.353553 0.382683 0.853553
v -0.653281 0.382683 0.653282
v -0.353553 0.382683 0.853553
v -0.923880 0.382683 0.000000
v -0.853553 0.382683 0.353553
v -0.653281 0.382684 -0.653281
v -0.853553 0.382683 -0.353553
v -0.000000 0.382684 -0.923879
v -0.353553 0.382684 -0.853553
v 0.653281 0.382684 -0.653281
v 0.353553 0.382684 -0.853553
v 0.853553 0.382683 -0.353553
v 0.923880 -0.000000 0.382683
v 1.000000 0.000000 0.000000
v 0.923880 0.000000 -0.382683
v 0.382683 -0.000000 0.923880
v 0.707107 -0.000000 0.707107
v -0.382683 -0.000000 0.923880
v 0.000000 -0.000000 1.000000
v -0.923880 -0.000000 0.382683
v -0.707107 -0.000000 0.707107
v -0.923880 0.000000 -0.382683
v -1.000000 0.000000 0.000000
v -0.382683 0.000000 -0.923880
v -0.707107 0.000000 -0.707107
v 0.382683 0.000000 -0.923880
v -0.000000 0.000000 -1.000000
v 0.707107 0.000000 -0.707107
v 0.923880 -0.382683 -0.000000
v 0.653281 -0.382684 0.653281
v 0.853553 -0.382683 0.353553
v 0.000000 -0.382684 0.923879
v 0.353553 -0.382684 0.853553
v -0.653281 -0.382684 0.653281
v -0.353553 -0.382684 0.853553
v -0.923880 -0.382683 -0.000000
v -0.853553 -0.382683 0.353553
v -0.653281 -0.382683 -0.653282
v -0.853553 -0.382683 -0.353553
v -0.000000 -0.382683 -0.923880
v -0.353553 -0.382683 -0.853553
v 0.653281 -0.382683 -0.653282
v 0.353553 -0.382683 -0.853553
v 0.853553 -0.382683 -0.353553
v 0.653281 -0.707107 0.270598
v 0.707107 -0.707107 -0.000000
v 0.653281 -0.707107 -0.270598
v 0.270598 -0.707107 0.653281
v 0.500000 -0.707107 0.500000
v -0.270598 -0.707107 0.653281
v 0.000000 -0.707107 0.707107
v -0.653281 -0.707107 0.270598
v -0.500000 -0.707107 0.500000
v -0.653281 -0.707107 -0.270598
v -0.707107 -0.707107 -0.000000
v -0.270598 -0.707107 -0.653282
v -0.500000 -0.707107 -0.500000
v 0.270598 -0.707107 -0.653282
v -0.000000 -0.707107 -0.707107
v 0.500000 -0.707107 -0.500000
v 0.382683 -0.923880 -0.000000
v 0.270598 -0.923880 0.270598
v 0.353553 -0.923880 0.146446
v 0.000000 -0.923880 0.382683
v 0.146447 -0.923880 0.353553
v -0.270598 -0.923880 0.270598
v -0.146447 -0.923880 0.353553
v -0.382683 -0.923880 -0.000000
v -0.353553 -0.923880 0.146446
v -0.270598 -0.923879 -0.270598
v -0.353553 -0.923880 -0.146447
v -0.000000 -0.923879 -0.382684
v -0.146447 -0.923879 -0.353554
v 0.270598 -0.923879 -0.270598
v 0.146447 -0.923879 -0.353554
v 0.353553 -0.923880 -0.146447
v 0.000000 -1.000000 -0.000000
vt 0.3822 0.8095
vt 0.3819 0.7186
vt 0.4341 0.7622
vt 0.5303 0.0751
vt 0.6097 0.0414
vt 0.5616 0.0934
vt 0.5038 0.1643
vt 0.4950 0.0710
vt 0.3540 0.7859
vt 0.4610 0.0817
vt 0.4867 0.0000
vt 0.3729 0.0639
vt 0.4239 0.0198
vt 0.4334 0.1056
vt 0.4165 0.1390
vt 0.3349 0.1956
vt 0.3417 0.1256
vt 0.4128 0.1769
vt 0.4229 0.2135
vt 0.3950 0.3180
vt 0.3536 0.2632
vt 0.4453 0.2431
vt 0.4766 0.2614
vt 0.5179 0.3594
vt 0.4527 0.3518
vt 0.5119 0.2655
vt 0.5459 0.2548
vt 0.6318 0.2955
vt 0.5808 0.3396
vt 0.5735 0.2310
vt 0.5904 0.1975
vt 0.6698 0.1638
vt 0.6630 0.2338
vt 0.5941 0.1597
vt 0.5839 0.1231
vt 0.6511 0.0962
vt 0.5520 0.0076
vt 0.4941 0.6941
vt 0.4793 0.8068
vt 0.3588 0.5904
vt 0.4259 0.6372
vt 0.3306 0.6828
vt 0.1545 0.8458
vt 0.1545 0.9714
vt 0.1181 0.8789
vt 0.9542 0.3716
vt 0.9074 0.2700
vt 0.9862 0.2807
vt 0.8939 0.3634
vt 0.8283 0.3605
vt 0.7422 0.2700
vt 0.8217 0.2662
vt 0.7675 0.3634
vt 0.7207 0.3716
vt 0.4358 0.4217
vt 0.3604 0.3775
vt 0.2510 0.8458
vt 0.2716 0.7386
vt 0.3032 0.8023
vt 0.6032 0.4058
vt 0.5210 0.4316
vt 0.6937 0.4427
vt 0.7466 0.5064
vt 0.6677 0.5172
vt 0.7541 0.4345
vt 0.8196 0.4316
vt 0.9117 0.5064
vt 0.8323 0.5027
vt 0.8804 0.4345
vt 0.5531 0.7525
vt 0.5939 0.8034
vt 0.5105 0.8458
vt 0.4793 0.5541
vt 0.5531 0.6157
vt 0.6170 0.6788
vt 0.7556 0.9957
vt 0.7236 0.8735
vt 0.7860 0.9001
vt 0.9047 0.9040
vt 0.8453 0.8849
vt 0.9047 0.8032
vt 0.8755 1.0000
vt 1.0000 0.1803
vt 0.8219 0.1646
vt 0.9146 0.1686
vt 0.6698 0.1803
vt 0.7359 0.1686
vt 0.6812 0.2807
vt 0.2864 0.5986
vt 0.3306 0.6803
vt 0.1487 0.7233
vt 0.2225 0.6617
vt 0.2033 0.7955
vt 0.1363 0.8423
vt 0.7236 0.9957
vt 0.6611 0.9254
vt 0.7236 0.8988
vt 0.6698 0.3481
vt 0.0000 0.9317
vt 0.0408 0.8458
vt 0.0408 0.9826
vt 0.6611 0.6119
vt 0.8393 0.5962
vt 0.7465 0.6002
vt 0.6611 0.7339
vt 0.6021 0.5388
vt 0.4669 0.4351
vt 0.5339 0.4819
vt 0.4067 0.5034
vt 0.7860 0.8032
vt 0.9145 0.0749
vt 0.9934 0.0856
vt 0.7494 0.0749
vt 0.8288 0.0711
vt 0.2633 0.4740
vt 0.3306 0.5435
vt 0.1635 0.5833
vt 0.2225 0.5249
vt 0.0283 0.6870
vt 0.0953 0.6402
vt 0.0761 0.7740
vt 0.6932 0.8032
vt 0.7538 0.7016
vt 0.6749 0.7123
vt 0.9189 0.7016
vt 0.8395 0.6978
vt 0.9252 0.6002
vt 0.6611 0.5971
vt 0.9914 0.6119
vt 0.5815 0.4316
vt 0.6337 0.4751
vt 0.1009 0.0099
vt 0.0601 0.1136
vt 0.0255 0.0541
vt 0.2683 0.0258
vt 0.1830 0.0722
vt 0.1862 0.0000
vt 0.2969 0.1361
vt 0.2459 0.0920
vt 0.0408 0.8967
vt 0.0816 0.8458
vt 0.0816 0.9826
vt 0.3349 0.0835
vt 0.9675 0.0111
vt 0.8415 0.0000
vt 0.9071 0.0029
vt 0.1487 0.4706
vt 0.1799 0.4316
vt 0.0513 0.5588
vt 0.1035 0.5152
vt 0.1181 0.8458
vt 0.1181 0.9714
vt 0.0816 0.9383
vt 0.8453 0.8993
vt 0.7860 0.9184
vt 0.8161 0.8032
vt 0.8453 1.0000
vt 0.7069 0.8032
vt 0.8329 0.7921
vt 0.7673 0.7950
vt 0.9404 0.8032
vt 0.8936 0.7950
vt 0.9800 0.7123
vt 0.1178 0.0798
vt 0.1417 0.1702
vt 0.2110 0.1768
vt 0.1770 0.1661
vt 0.2555 0.2341
vt 0.2386 0.2006
vt 0.3281 0.1978
vt 0.3349 0.2678
vt 0.2490 0.3085
vt 0.2592 0.2719
vt 0.7807 0.0029
vt 0.3162 0.3354
vt 0.2748 0.3902
vt 0.1954 0.3565
vt 0.2267 0.3382
vt 0.2171 0.4240
vt 0.0517 0.4679
vt 0.1519 0.4316
vt 0.1261 0.3499
vt 0.1601 0.3606
vt 0.0000 0.5946
vt 0.0890 0.4118
vt 0.0380 0.3677
vt 0.0816 0.2926
vt 0.0985 0.3260
vt 0.0068 0.3059
vt 0.0000 0.2360
vt 0.0881 0.2181
vt 0.0779 0.2547
vt 0.0187 0.1684
vt 0.1104 0.1884
vt 0.1689 0.2673
vt 0.0234 0.4915
vn 0.4425 0.8968 0.0000
vn 0.6528 0.7076 0.2704
vn 0.7066 0.7076 0.0000
vn 0.6528 0.7076 -0.2704
vn 0.3531 0.9241 -0.1463
vn -0.0000 1.0000 0.0000
vn 0.3531 0.9241 0.1463
vn 0.3129 0.8968 0.3129
vn 0.2704 0.7076 0.6528
vn 0.4996 0.7076 0.4996
vn 0.1463 0.9241 0.3531
vn -0.0000 0.8968 0.4425
vn -0.2704 0.7076 0.6528
vn 0.0000 0.7076 0.7066
vn -0.1463 0.9241 0.3531
vn -0.3129 0.8968 0.3129
vn -0.6528 0.7076 0.2704
vn -0.4996 0.7076 0.4996
vn -0.3531 0.9241 0.1463
vn -0.4425 0.8968 -0.0000
vn -0.6528 0.7076 -0.2704
vn -0.7066 0.7076 0.0000
vn -0.3531 0.9241 -0.1463
vn -0.3129 0.8968 -0.3129
vn -0.2704 0.7076 -0.6528
vn -0.4996 0.7076 -0.4996
vn -0.1463 0.9241 -0.3531
vn 0.0000 0.8968 -0.4425
vn 0.2704 0.7076 -0.6528
vn 0.0000 0.7076 -0.7066
vn 0.1463 0.9241 -0.3531
vn 0.3129 0.8968 -0.3129
vn 0.4996 0.7076 -0.4996
vn 0.9237 0.3832 0.0000
vn 0.6531 0.3832 0.6531
vn 0.8534 0.3832 0.3535
vn 0.0000 0.3832 0.9237
vn 0.3535 0.3832 0.8534
vn -0.6531 0.3832 0.6531
vn -0.3535 0.3832 0.8534
vn -0.9237 0.3832 0.0000
vn -0.8534 0.3832 0.3535
vn -0.6531 0.3832 -0.6531
vn -0.8534 0.3832 -0.3535
vn -0.0000 0.3832 -0.9237
vn -0.3535 0.3832 -0.8534
vn 0.6531 0.3832 -0.6531
vn 0.3535 0.3832 -0.8534
vn 0.8534 0.3832 -0.3535
vn 0.9239 -0.0000 0.3827
vn 1.0000 0.0000 0.0000
vn 0.9239 0.0000 -0.3827
vn 0.3827 -0.0000 0.9239
vn 0.7071 -0.0000 0.7071
vn -0.3827 -0.0000 0.9239
vn 0.0000 -0.0000 1.0000
vn -0.9239 -0.0000 0.3827
vn -0.7071 -0.0000 0.7071
vn -0.9239 0.0000 -0.3827
vn -1.0000 -0.0000 -0.0000
vn -0.3827 0.0000 -0.9239
vn -0.7071 0.0000 -0.7071
vn 0.3827 0.0000 -0.9239
vn 0.0000 0.0000 -1.0000
vn 0.7071 0.0000 -0.7071
vn 0.9237 -0.3832 0.0000
vn 0.6531 -0.3832 0.6531
vn 0.8534 -0.3832 0.3535
vn 0.0000 -0.3832 0.9237
vn 0.3535 -0.3832 0.8534
vn -0.6531 -0.3832 0.6531
vn -0.3535 -0.3832 0.8534
vn -0.9237 -0.3832 0.0000
vn -0.8534 -0.3832 0.3535
vn -0.6531 -0.3832 -0.6531
vn -0.8534 -0.3832 -0.3535
vn -0.0000 -0.3832 -0.9237
vn -0.3535 -0.3832 -0.8534
vn 0.6531 -0.3832 -0.6531
vn 0.3535 -0.3832 -0.8534
vn 0.8534 -0.3832 -0.3535
vn 0.6528 -0.7076 0.2704
vn 0.7066 -0.7076 -0.0000
vn 0.6528 -0.7076 -0.2704
vn 0.2704 -0.7076 0.6528
vn 0.4996 -0.7076 0.4996
vn -0.2704 -0.7076 0.6528
vn 0.0000 -0.7076 0.7066
vn -0.6528 -0.7076 0.2704
vn -0.4996 -0.7076 0.4996
vn -0.6528 -0.7076 -0.2704
vn -0.7066 -0.7076 0.0000
vn -0.2704 -0.7076 -0.6528
vn -0.4996 -0.7076 -0.4996
vn 0.2704 -0.7076 -0.6528
vn -0.0000 -0.7076 -0.7066
vn 0.4996 -0.7076 -0.4996
vn 0.4425 -0.8968 -0.0000
vn 0.3129 -0.8968 0.3129
vn 0.3531 -0.9241 0.1463
vn -0.0000 -0.8968 0.4425
vn 0.1463 -0.9241 0.3531
vn -0.3129 -0.8968 0.3129
vn -0.1463 -0.9241 0.3531
vn -0.4425 -0.8968 -0.0000
vn -0.3531 -0.9241 0.1463
vn -0.3129 -0.8968 -0.3129
vn -0.3531 -0.9241 -0.1463
vn 0.0000 -0.8968 -0.4425
vn -0.1463 -0.9241 -0.3531
vn 0.3129 -0.8968 -0.3129
vn 0.1463 -0.9241 -0.3531
vn 0.3531 -0.9241 -0.1463
vn -0.0000 -1.0000 -0.0000
usemtl default
s 1
f 1/1/1 2/2/2 3/3/3
f 1/4/1 4/5/4 5/6/5
f 1/4/1 6/7/6 7/8/7
f 7/9/7 2/2/2 1/1/1
f 7/8/7 6/7/6 8/10/8
f 8/10/8 2/11/2 7/8/7
f 8/10/8 9/12/9 10/13/10
f 8/10/8 6/7/6 11/14/11
f 11/14/11 9/12/9 8/10/8
f 11/14/11 6/7/6 12/15/12
f 12/15/12 9/12/9 11/14/11
f 12/15/12 13/16/13 14/17/14
f 12/15/12 6/7/6 15/18/15
f 15/18/15 13/16/13 12/15/12
f 15/18/15 6/7/6 16/19/16
f 16/19/16 13/16/13 15/18/15
f 16/19/16 17/20/17 18/21/18
f 16/19/16 6/7/6 19/22/19
f 19/22/19 17/20/17 16/19/16
f 19/22/19 6/7/6 20/23/20
f 20/23/20 17/20/17 19/22/19
f 20/23/20 21/24/21 22/25/22
f 20/23/20 6/7/6 23/26/23
f 23/26/23 21/24/21 20/23/20
f 23/26/23 6/7/6 24/27/24
f 24/27/24 21/24/21 23/26/23
f 24/27/24 25/28/25 26/29/26
f 24/27/24 6/7/6 27/30/27
f 27/30/27 25/28/25 24/27/24
f 27/30/27 6/7/6 28/31/28
f 28/31/28 25/28/25 27/30/27
f 28/31/28 29/32/29 30/33/30
f 28/31/28 6/7/6 31/34/31
f 31/34/31 29/32/29 28/31/28
f 31/34/31 6/7/6 32/35/32
f 32/35/32 29/32/29 31/34/31
f 32/35/32 4/5/4 33/36/33
f 32/35/32 6/7/6 5/6/5
f 5/6/5 4/5/4 32/35/32
f 5/6/5 6/7/6 1/4/1
f 3/37/3 4/5/4 1/4/1
f 3/3/3 34/38/34 4/39/4
f 2/2/2 34/38/34 3/3/3
f 2/2/2 35/40/35 36/41/36
f 10/13/10 2/11/2 8/10/8
f 10/42/10 35/40/35 2/2/2
f 9/43/9 35/44/35 10/45/10
f 9/46/9 37/47/37 38/48/38
f 14/17/14 9/12/9 12/15/12
f 14/49/14 37/47/37 9/46/9
f 13/50/13 37/47/37 14/49/14
f 13/50/13 39/51/39 40/52/40
f 18/21/18 13/16/13 16/19/16
f 18/53/18 39/51/39 13/50/13
f 17/54/17 39/51/39 18/53/18
f 17/20/17 41/55/41 42/56/42
f 22/25/22 17/20/17 20/23/20
f 22/25/22 41/55/41 17/20/17
f 21/57/21 41/58/41 22/59/22
f 21/24/21 43/60/43 44/61/44
f 26/29/26 21/24/21 24/27/24
f 26/29/26 43/60/43 21/24/21
f 25/28/25 43/60/43 26/29/26
f 25/62/25 45/63/45 46/64/46
f 30/33/30 25/28/25 28/31/28
f 30/65/30 45/63/45 25/62/25
f 29/66/29 45/63/45 30/65/30
f 29/66/29 47/67/47 48/68/48
f 33/36/33 29/32/29 32/35/32
f 33/69/33 47/67/47 29/66/29
f 4/39/4 34/38/34 49/70/49
f 4/39/4 47/71/47 33/72/33
f 34/38/34 50/73/50 51/74/51
f 34/38/34 52/75/52 49/70/49
f 36/41/36 34/38/34 2/2/2
f 36/41/36 50/73/50 34/38/34
f 35/40/35 50/73/50 36/41/36
f 35/76/35 53/77/53 54/78/54
f 38/79/38 35/80/35 9/81/9
f 38/79/38 53/82/53 35/80/35
f 37/47/37 53/83/53 38/48/38
f 37/47/37 55/84/55 56/85/56
f 40/52/40 37/47/37 13/50/13
f 40/52/40 55/84/55 37/47/37
f 39/51/39 55/84/55 40/52/40
f 39/51/39 57/86/57 58/87/58
f 42/88/42 39/51/39 17/54/17
f 42/88/42 57/86/57 39/51/39
f 41/58/41 57/89/57 42/90/42
f 41/58/41 59/91/59 60/92/60
f 44/93/44 41/58/41 21/57/21
f 44/93/44 59/91/59 41/58/41
f 43/94/43 59/91/59 44/93/44
f 43/95/43 61/96/61 62/97/62
f 46/98/46 43/60/43 25/28/25
f 46/99/46 61/100/61 43/101/43
f 45/63/45 61/102/61 46/64/46
f 45/63/45 63/103/63 64/104/64
f 48/68/48 45/63/45 29/66/29
f 48/68/48 63/103/63 45/63/45
f 47/67/47 63/103/63 48/68/48
f 47/71/47 52/75/52 65/105/65
f 49/70/49 47/71/47 4/39/4
f 49/70/49 52/75/52 47/71/47
f 51/74/51 52/75/52 34/38/34
f 51/74/51 66/106/66 52/75/52
f 50/73/50 66/106/66 51/74/51
f 50/73/50 67/107/67 68/108/68
f 54/109/54 50/73/50 35/40/35
f 54/109/54 67/107/67 50/73/50
f 53/77/53 67/110/67 54/78/54
f 53/83/53 69/111/69 70/112/70
f 56/85/56 53/83/53 37/47/37
f 56/85/56 69/111/69 53/83/53
f 55/84/55 69/111/69 56/85/56
f 55/84/55 71/113/71 72/114/72
f 58/87/58 55/84/55 39/51/39
f 58/87/58 71/113/71 55/84/55
f 57/89/57 71/115/71 58/116/58
f 57/89/57 73/117/73 74/118/74
f 60/92/60 57/89/57 41/58/41
f 60/92/60 73/117/73 57/89/57
f 59/91/59 73/117/73 60/92/60
f 59/91/59 75/119/75 76/120/76
f 62/121/62 59/91/59 43/94/43
f 62/121/62 75/119/75 59/91/59
f 61/96/61 75/122/75 62/97/62
f 61/102/61 77/123/77 78/124/78
f 64/104/64 61/102/61 45/63/45
f 64/104/64 77/123/77 61/102/61
f 63/103/63 77/123/77 64/104/64
f 63/103/63 79/125/79 80/126/80
f 65/127/65 63/103/63 47/67/47
f 65/127/65 79/125/79 63/103/63
f 52/75/52 66/106/66 81/128/81
f 52/129/52 79/125/79 65/127/65
f 66/106/66 82/130/82 83/131/83
f 66/132/66 84/133/84 81/134/81
f 68/108/68 66/106/66 50/73/50
f 68/108/68 82/130/82 66/106/66
f 67/135/67 82/136/82 68/137/68
f 67/135/67 85/138/85 86/139/86
f 70/140/70 67/141/67 53/142/53
f 70/143/70 85/138/85 67/135/67
f 69/111/69 85/144/85 70/112/70
f 69/111/69 87/145/87 88/146/88
f 72/114/72 69/111/69 55/84/55
f 72/114/72 87/145/87 69/111/69
f 71/113/71 87/145/87 72/114/72
f 71/115/71 89/147/89 90/148/90
f 74/118/74 71/115/71 57/89/57
f 74/118/74 89/147/89 71/115/71
f 73/117/73 89/147/89 74/118/74
f 73/117/73 91/149/91 92/150/92
f 76/120/76 73/117/73 59/91/59
f 76/120/76 91/149/91 73/117/73
f 75/119/75 91/149/91 76/120/76
f 75/151/75 93/152/93 94/153/94
f 78/154/78 75/155/75 61/156/61
f 78/154/78 93/157/93 75/155/75
f 77/123/77 93/158/93 78/124/78
f 77/123/77 95/159/95 96/160/96
f 80/126/80 77/123/77 63/103/63
f 80/126/80 95/159/95 77/123/77
f 79/125/79 95/159/95 80/126/80
f 79/125/79 84/161/84 97/162/97
f 81/163/81 79/125/79 52/129/52
f 81/163/81 84/161/84 79/125/79
f 83/164/83 84/133/84 66/132/66
f 83/164/83 98/165/98 84/133/84
f 82/136/82 98/165/98 83/164/83
f 82/136/82 99/166/99 100/167/100
f 86/139/86 82/136/82 67/135/67
f 86/139/86 99/166/99 82/136/82
f 85/138/85 99/166/99 86/139/86
f 85/138/85 101/168/101 102/169/102
f 88/146/88 85/144/85 69/111/69
f 88/170/88 101/168/101 85/138/85
f 87/171/87 101/168/101 88/170/88
f 87/171/87 103/172/103 104/173/104
f 90/174/90 87/145/87 71/113/71
f 90/175/90 103/172/103 87/171/87
f 89/176/89 103/172/103 90/175/90
f 89/176/89 105/177/105 106/178/106
f 92/150/92 89/147/89 73/117/73
f 92/179/92 105/177/105 89/176/89
f 91/149/91 105/180/105 92/150/92
f 91/181/91 107/182/107 108/183/108
f 94/184/94 91/149/91 75/119/75
f 94/185/94 107/182/107 91/181/91
f 93/186/93 107/182/107 94/185/94
f 93/186/93 109/187/109 110/188/110
f 96/160/96 93/158/93 77/123/77
f 96/189/96 109/187/109 93/186/93
f 95/190/95 109/187/109 96/189/96
f 95/190/95 111/191/111 112/192/112
f 97/162/97 95/159/95 79/125/79
f 97/193/97 111/191/111 95/190/95
f 84/133/84 98/165/98 113/194/113
f 84/133/84 111/191/111 97/193/97
f 98/165/98 114/195/114 113/194/113
f 100/167/100 98/165/98 82/136/82
f 100/167/100 114/195/114 98/165/98
f 99/166/99 114/195/114 100/167/100
f 102/169/102 99/166/99 85/138/85
f 102/169/102 114/195/114 99/166/99
f 101/168/101 114/195/114 102/169/102
f 104/173/104 101/168/101 87/171/87
f 104/173/104 114/195/114 101/168/101
f 103/172/103 114/195/114 104/173/104
f 106/178/106 103/172/103 89/176/89
f 106/178/106 114/195/114 103/172/103
f 105/177/105 114/195/114 106/178/106
f 108/196/108 105/180/105 91/149/91
f 108/183/108 114/195/114 105/177/105
f 107/182/107 114/195/114 108/183/108
f 110/188/110 107/182/107 93/186/93
f 110/188/110 114/195/114 107/182/107
f 109/187/109 114/195/114 110/188/110
f 112/192/112 109/187/109 95/190/95
f 112/192/112 114/195/114 109/187/109
f 111/191/111 114/195/114 112/192/112
f 113/194/113 111/191/111 84/133/84
f 113/194/113 114/195/114 111/191/111
